<?xml version="1.0" encoding="UTF-8"?>
<svg width="66px" height="66px" viewBox="0 0 66 66" version="1.1" xmlns="http://www.w3.org/2000/svg" xmlns:xlink="http://www.w3.org/1999/xlink">
    <title>Combined Shape Copy 2</title>
    <defs>
        <linearGradient x1="4.80564355%" y1="12.3683844%" x2="92.2089812%" y2="94.1458879%" id="linearGradient-1">
            <stop stop-color="#8BD627" offset="0%"></stop>
            <stop stop-color="#00B712" offset="100%"></stop>
        </linearGradient>
    </defs>
    <g id="Final" stroke="none" stroke-width="1" fill="none" fill-rule="evenodd">
        <path d="M15.4202353,55.8983529 L15.4202353,65.536 L7.71011765,65.536 L7.71011765,55.8983529 L15.4202353,55.8983529 Z M57.8258824,55.8983529 L57.8258824,65.536 L50.1157647,65.536 L50.1157647,55.8983529 L57.8258824,55.8983529 Z M48.8087713,13.9186899 C51.5205481,15.6408732 54.8996357,15.8933795 57.8258824,14.6161985 L57.8258824,14.6161985 L57.8258824,19.2752941 L65.536,19.2752941 L65.536,23.1303529 L57.8258824,23.1303529 L57.8258824,44.3331765 L65.536,44.3331765 L65.536,52.0432941 L-6.96331881e-13,52.0432941 L-6.96331881e-13,44.3331765 L7.71011765,44.3331765 L7.71011765,23.1303529 L-6.96331881e-13,23.1303529 L-6.96331881e-13,19.2752941 L7.71011765,19.2752941 L7.71011765,14.6161985 C10.5700573,15.8645951 13.9481168,15.6774962 16.7154066,13.9264 C18.5767743,16.6917095 19.1659356,17.5669956 19.331102,17.8123817 L19.344,17.833 C19.3448687,17.832853 19.344988,17.83303 19.3452924,17.8334821 C19.3464659,17.8352269 19.3472582,17.8364042 19.3483211,17.8379835 L19.3522636,17.8438366 L19.347,17.837 L19.3581736,17.8526216 L19.3581736,17.8526216 L19.36,17.855 L19.364,17.862 L19.3691418,17.8689083 L19.373,17.875 L19.387,17.896 L19.3888397,17.8981661 C25.5211319,27.3814548 40.0131976,27.3836393 46.1478812,17.8971106 C46.1468527,17.8986113 46.1469771,17.8984258 46.1480648,17.8968 L46.162325,17.8754767 C46.163764,17.8733252 46.1652455,17.8711104 46.166741,17.8688745 L46.167,17.867 L46.169,17.864 C46.1727369,17.8599107 46.174218,17.8576965 46.1756565,17.8555461 L46.183,17.843 L46.1890591,17.8355131 C46.1903474,17.8335883 46.1910116,17.8325967 46.1908252,17.8328772 L46.2046132,17.8122606 C46.3690571,17.566409 46.9556318,16.6894197 48.8087713,13.9186899 Z M15.4202353,18.8950568 L15.4202353,44.3331765 L23.1303529,44.3331765 L23.1303529,26.4319538 C20.3782264,24.9122896 17.9835924,22.7400925 16.1805814,20.0356402 L16.1805814,20.0356402 L15.4202353,18.8950568 Z M26.9854118,28.0576321 L26.9854118,44.3331765 L30.8404706,44.3331765 L30.8404706,28.8196488 C29.522683,28.6923033 28.2325233,28.4347854 26.9854118,28.0576321 L26.9854118,28.0576321 Z M38.5505882,28.0575036 C37.3033482,28.4346569 36.013317,28.6923033 34.6955294,28.8195203 L34.6955294,28.8195203 L34.6955294,44.3331765 L38.5505882,44.3331765 Z M50.1157647,18.8950568 L49.3554186,20.0355117 C47.5524076,22.7400925 45.1577736,24.9122896 42.4056471,26.4319538 L42.4056471,26.4319538 L42.4056471,44.3331765 L50.1157647,44.3331765 L50.1157647,18.8950568 Z M48.1882353,5.78258824 C48.4909859,-1.88293923 59.4466776,-1.89064935 59.7534118,5.78258824 C59.7534118,8.98228706 57.1579292,11.5651765 53.9708235,11.5651765 C50.7793488,11.5651765 48.1882353,8.97753249 48.1882353,5.78258824 Z M11.5651765,-2.84217094e-13 C14.1763363,-2.84217094e-13 16.382715,1.73104991 17.1010409,4.10692267 C17.7732347,6.32782205 17.0317784,8.67542438 15.4202353,10.092544 C13.2256788,12.05554 9.90660166,12.0572105 7.71011765,10.092544 C3.79646193,6.60165973 6.24827934,0.0122076863 11.5651765,-2.84217094e-13 Z" id="Combined-Shape-Copy-2" fill="url(#linearGradient-1)" fill-rule="nonzero"></path>
    </g>
</svg>