<?xml version="1.0" encoding="UTF-8"?>
<svg width="229px" height="108px" viewBox="0 0 229 108" version="1.1" xmlns="http://www.w3.org/2000/svg" xmlns:xlink="http://www.w3.org/1999/xlink">
    <title>Group 2</title>
    <g id="Final" stroke="none" stroke-width="1" fill="none" fill-rule="evenodd">
        <g id="spec-tennis-v1-final-dark-new-grey1" transform="translate(-534.000000, -887.000000)" fill="#2C2C2C">
            <g id="Group-2" transform="translate(534.000000, 887.000000)">
                <path d="M99.861267,2.59931957 C99.2889825,3.99707505 98.8702222,5.43172202 98.4766653,6.87024833 L98.0082819,8.59622921 C97.6931414,9.74530749 97.3612809,10.8884174 96.947,12.0086569 C96.4141263,13.4620088 94.497745,13.2925466 94.3048669,11.7940919 C94.1116635,10.2157164 94.3754566,8.54523138 94.7423484,6.90673225 C90.7697824,11.6384786 86.8044472,16.3817496 83.0865002,21.3075797 C76.3413387,30.2486327 64.0680413,45.9150967 75.9883388,55.3065246 C77.275764,56.3178038 79.0780458,57.3387669 80.9799546,58.2965728 L81.457267,58.5346663 L81.6970294,58.6526472 L81.6970294,58.6526472 L82.1778652,58.8863192 L82.6592477,59.1167273 C85.0852045,60.2697307 87.4770335,61.2886446 89.0032624,62.0276094 C89.0828978,62.0492183 89.1640271,62.0755994 89.2457388,62.1052192 C90.4969469,62.558779 91.4108931,63.5999767 91.1072919,64.4307347 C90.8652097,65.0931515 89.9100395,65.098944 88.8985666,64.8441618 C88.8820649,64.843563 88.8660494,64.8406842 88.8500756,64.8373023 L88.7382296,64.8049714 L88.7005503,64.7912158 C88.5084716,64.7369544 88.3159083,64.6743012 88.1272982,64.6059322 C87.9091602,64.526857 87.7107114,64.4453566 87.5333257,64.3602779 L80.9413981,61.9256985 C77.2676602,60.8341186 73.887464,58.9987714 71.2599476,56.1339188 C66.7548761,51.2297302 66.0423439,44.4300228 68.0951927,38.1207211 C70.4107003,31.0390206 75.2848246,24.8327971 79.853798,18.9607018 C83.2420646,14.5786979 87.0386187,10.5707684 91.0323501,6.72955002 L91.8910908,5.90890794 L91.879148,5.91634039 C90.0629068,6.71013499 88.3186205,8.02858732 86.3300033,7.894316 L86.0442189,7.86503839 L85.2468854,6.1177967 C86.2835511,4.30284288 88.6948676,3.69957434 90.5642867,2.92075919 C92.9500912,1.93275137 95.3431265,0.956268256 97.7845836,0.109897008 C99.3890671,-0.455965254 100.38033,1.28275992 99.861267,2.59931957 Z" id="Combined-Shape"></path>
                <text id="Click-on-one-of-the" font-family="CaveatRoman-Bold, Caveat" font-size="20" font-weight="bold" line-spacing="22">
                    <tspan x="0" y="82">Click on one of the icons above to</tspan>
                    <tspan x="54.78" y="104">choose your route</tspan>
                </text>
            </g>
        </g>
    </g>
</svg>