<?xml version="1.0" encoding="UTF-8"?>
<svg width="65px" height="66px" viewBox="0 0 65 66" version="1.1" xmlns="http://www.w3.org/2000/svg" xmlns:xlink="http://www.w3.org/1999/xlink">
    <title>income copy</title>
    <defs>
        <linearGradient x1="6.04936279%" y1="12.3683844%" x2="91.0474175%" y2="94.1458879%" id="linearGradient-1">
            <stop stop-color="#8BD627" offset="0%"></stop>
            <stop stop-color="#00B712" offset="100%"></stop>
        </linearGradient>
    </defs>
    <g id="Final" stroke="none" stroke-width="1" fill="none" fill-rule="evenodd">
        <g id="spec-tennis-v1-final-dark-new-grey1" transform="translate(-1019.000000, -764.000000)" fill="url(#linearGradient-1)" fill-rule="nonzero">
            <g id="Group-30-Copy-2" transform="translate(960.000000, 723.000000)">
                <g id="Group-29" transform="translate(23.000000, 41.000000)">
                    <g id="income-copy" transform="translate(36.000000, 0.000000)">
                        <path d="M9.99616,40.995328 C10.854656,40.500096 11.947904,40.796928 12.440064,41.650176 L12.440064,41.650176 L21.670656,57.637504 C22.16448,58.493824 21.872256,59.587584 21.015808,60.081408 L21.015808,60.081408 L11.984384,65.296128 C11.12768,65.789824 10.03456,65.496192 9.54048,64.64128 L9.54048,64.64128 L0.309888,48.653824 C-0.183808,47.797504 0.109568,46.703744 0.964736,46.208768 L0.964736,46.208768 Z M28.777984,34.8096 C31.515904,34.8096 34.045184,35.70176 36.091904,37.21088 C36.687104,37.64992 37.242624,38.14144 37.749504,38.67776 L37.749504,38.67776 L45.236224,38.67776 C46.610944,38.67776 47.783424,39.74272 47.839744,41.11616 C47.899904,42.56384 46.742784,43.76704 45.297664,43.76704 L45.297664,43.76704 L35.462144,43.76704 C34.403584,43.76704 33.542144,44.62464 33.542144,45.68704 C33.542144,46.74816 34.402304,47.60704 35.462144,47.60704 L35.462144,47.60704 L44.658944,47.60704 C45.996544,47.60704 47.277824,47.23584 48.382464,46.5408 C48.664064,46.36544 48.934144,46.16704 49.191424,45.94816 C49.5221381,45.7092267 52.123688,43.8345903 54.949851,41.7983198 L55.4818892,41.4149848 C57.2607933,40.1332868 59.0774803,38.8244385 60.432384,37.84832 C61.638144,36.9792 63.320064,37.25184 64.189184,38.45888 C65.059584,39.66592 64.785664,41.3504 63.577344,42.21824 C63.570944,42.22208 54.929664,48.52992 50.703104,51.56608 C49.694464,52.29056 48.763904,52.89088 47.894784,53.39008 C45.387264,54.83264 42.537984,55.57248 39.645184,55.57248 L39.645184,55.57248 L24.912384,55.57248 L17.058304,41.96992 C19.066624,37.87648 23.910144,34.8096 28.777984,34.8096 Z M38.708352,-4.54747351e-13 C47.647872,-4.54747351e-13 54.919552,7.27296 54.919552,16.21248 C54.919552,25.152 47.647872,32.42496 38.708352,32.42496 C29.768832,32.42496 22.495872,25.152 22.495872,16.21248 C22.495872,7.27296 29.768832,-4.54747351e-13 38.708352,-4.54747351e-13 Z M38.708352,4.32256 C37.647232,4.32256 36.788352,5.18144 36.788352,6.24256 L36.788352,6.24256 L36.788352,6.68288 C34.497152,7.16928 32.772992,9.20576 32.772992,11.64032 C32.772992,13.23904 33.540992,14.76224 34.826112,15.71456 L34.826112,15.71456 L38.708352,18.58688 L40.304512,19.76832 C40.614272,19.99744 40.799872,20.36352 40.802432,20.74752 L40.802432,20.74752 L40.802432,20.76544 C40.80768,21.444736 40.262784,21.997824 39.581312,22.0032 C39.0897664,22.0060672 38.9136606,22.0070946 38.7578166,22.0080254 L38.6223135,22.0088402 C38.4780032,22.0097126 38.2866176,22.01088 37.862272,22.01344 C37.162752,22.01344 36.629632,21.454976 36.627072,20.79232 C36.620672,19.73632 35.761792,18.88384 34.707072,18.88384 L34.707072,18.88384 L34.694272,18.88384 C33.634432,18.89024 32.780672,19.75552 32.787072,20.81536 C32.794752,22.1696 33.329792,23.43936 34.293632,24.3904 C34.989952,25.07904 35.851392,25.53984 36.788352,25.73952 L36.788352,25.73952 L36.788352,26.1824 C36.788352,27.24352 37.647232,28.1024 38.708352,28.1024 C39.768192,28.1024 40.628352,27.24352 40.628352,26.1824 L40.628352,26.1824 L40.628352,25.73312 C41.590912,25.53088 42.474112,25.05088 43.180672,24.33536 C44.132992,23.37152 44.651392,22.09408 44.6425462,20.73984 L44.6425462,20.73984 L44.6425462,20.72192 C44.632192,19.13472 43.864192,17.6256 42.589312,16.68224 L42.589312,16.68224 L38.708352,13.80992 L37.110912,12.6272 C36.798592,12.3968 36.612992,12.02816 36.612992,11.64032 C36.612992,10.9632 37.164672,10.41152 37.841792,10.41152 L37.841792,10.41152 L39.563392,10.41152 C40.240512,10.41152 40.792192,10.9632 40.792192,11.64032 C40.792192,12.70016 41.651072,13.56032 42.712192,13.56032 C43.772032,13.56032 44.632192,12.70016 44.632192,11.64032 C44.632192,9.21088 42.913152,7.17568 40.628352,6.68544 L40.628352,6.68544 L40.628352,6.24256 C40.628352,5.18144 39.768192,4.32256 38.708352,4.32256 Z" id="Combined-Shape"></path>
                    </g>
                </g>
            </g>
        </g>
    </g>
</svg>