<?xml version="1.0" encoding="UTF-8"?>
<svg width="135px" height="135px" viewBox="0 0 135 135" version="1.1" xmlns="http://www.w3.org/2000/svg" xmlns:xlink="http://www.w3.org/1999/xlink">
    <title>Group 6</title>
    <g id="Final" stroke="none" stroke-width="1" fill="none" fill-rule="evenodd">
        <g id="spec-tennis-v1-final-dark-new-grey2" transform="translate(-632.000000, -229.000000)">
            <g id="Group-7" transform="translate(314.000000, 115.000000)">
                <g id="Group-6" transform="translate(318.000000, 114.000000)">
                    <circle id="Oval-Copy-3" fill="#8BD627" opacity="0.300000012" cx="67.5" cy="67.5" r="67.5"></circle>
                    <g id="Group-4" transform="translate(11.000000, 10.000000)">
                        <circle id="Oval-Copy-2" fill="#8BD627" opacity="0.5" cx="56" cy="56" r="56"></circle>
                        <g id="play-button" transform="translate(11.000000, 11.000000)" fill-rule="nonzero">
                            <circle id="Oval" fill="#8BD627" cx="45" cy="45" r="45"></circle>
                            <g id="Group" transform="translate(33.000000, 20.000000)" fill="#FFFFFF">
                                <polygon id="Path" points="36.4166667 25 1.58333333 48.4375 1.58333333 25.4265625 1.58333333 1.5625"></polygon>
                                <path d="M1.58333333,50 C1.33,50 1.07508333,49.940625 0.843916667,49.81875 C0.324583333,49.5484375 0,49.0171875 0,48.4375 L0,1.5625 C0,0.9828125 0.324583333,0.4515625 0.843916667,0.18125 C1.36325,-0.090625 1.99025,-0.053125 2.47633333,0.271875 L37.3096667,23.709375 C37.7403333,24 38,24.4828125 38,25 C38,25.5171875 37.7403333,26 37.3080833,26.290625 L2.47475,49.728125 C2.20716667,49.9078125 1.89525,50 1.58333333,50 Z M3.16666667,4.5203125 L3.16666667,45.48125 L33.60625,25 L3.16666667,4.5203125 Z" id="Shape"></path>
                            </g>
                        </g>
                    </g>
                </g>
            </g>
        </g>
    </g>
</svg>