<?xml version="1.0" encoding="UTF-8"?>
<svg width="87px" height="56px" viewBox="0 0 87 56" version="1.1" xmlns="http://www.w3.org/2000/svg" xmlns:xlink="http://www.w3.org/1999/xlink">
    <title>Combined Shape Copy</title>
    <defs>
        <linearGradient x1="4.80564355%" y1="34.4084097%" x2="92.2089812%" y2="68.2905938%" id="linearGradient-1">
            <stop stop-color="#8BD627" offset="0%"></stop>
            <stop stop-color="#00B712" offset="100%"></stop>
        </linearGradient>
    </defs>
    <g id="Final" stroke="none" stroke-width="1" fill="none" fill-rule="evenodd">
        <g id="spec-tennis-v1-final-dark-new-grey1" transform="translate(-656.000000, -766.000000)" fill="url(#linearGradient-1)" fill-rule="nonzero">
            <g id="Group-30-Copy" transform="translate(608.000000, 723.000000)">
                <g id="Group-32" transform="translate(43.000000, 43.000000)">
                    <path d="M48.4999113,29.8666317 C62.0568308,29.8666317 73.0869103,40.7529976 73.0869103,54.1332808 C73.0869103,55.1636776 72.2395474,56 71.1955481,56 L71.1955481,56 L25.8042746,56 C24.7602753,56 23.9129124,55.1636776 23.9129124,54.1332808 C23.9129124,40.7529976 34.9429919,29.8666317 48.4999113,29.8666317 Z M22.0217276,37.3333333 C23.216972,37.3333333 24.3934216,37.4938078 25.5508991,37.7365321 C22.1579014,42.3509177 20.1303654,48.0069 20.1303654,54.1332808 C20.1303654,54.7904038 20.2665392,55.4139268 20.4784243,56 L20.4784243,56 L6.89136217,56 C5.84736288,56 5,55.1636776 5,54.1332808 C5,44.8709098 12.6370818,37.3333333 22.0217276,37.3333333 Z M74.9782724,37.3333333 C84.3629182,37.3333333 92,44.8709098 92,54.1332808 C92,55.1636776 91.1526371,56 90.1086378,56 L90.1086378,56 L76.5215757,56 C76.7334608,55.4137518 76.8696346,54.7904038 76.8696346,54.1332808 C76.8696346,48.0069 74.8420986,42.3509177 71.4491009,37.7365321 C72.6065784,37.4938078 73.783028,37.3333333 74.9782724,37.3333333 Z M74.9782724,14.9334033 C80.200929,14.9334033 84.4347286,19.1120398 84.4347286,24.2666492 C84.4347286,29.4212585 80.200929,33.599895 74.9782724,33.599895 C69.7556159,33.599895 65.5218162,29.4212585 65.5218162,24.2666492 C65.5218162,19.1120398 69.7556159,14.9334033 74.9782724,14.9334033 Z M22.2903517,14.9334033 C27.5130083,14.9334033 31.7468079,19.1120398 31.7468079,24.2666492 C31.7468079,29.4212585 27.5130083,33.599895 22.2903517,33.599895 C17.0676952,33.599895 12.8338955,29.4212585 12.8338955,24.2666492 C12.8338955,19.1120398 17.0676952,14.9334033 22.2903517,14.9334033 Z M48.4999113,-9.41469125e-14 C55.8117089,-9.41469125e-14 61.7390919,5.85015377 61.7390919,13.0666842 C61.7390919,20.2832146 55.8117089,26.1333683 48.4999113,26.1333683 C41.1881138,26.1333683 35.2607308,20.2832146 35.2607308,13.0666842 C35.2607308,5.85015377 41.1881138,-9.41469125e-14 48.4999113,-9.41469125e-14 Z" id="Combined-Shape-Copy"></path>
                </g>
            </g>
        </g>
    </g>
</svg>