<?xml version="1.0" encoding="UTF-8"?>
<svg width="180px" height="135px" viewBox="0 0 180 135" version="1.1" xmlns="http://www.w3.org/2000/svg" xmlns:xlink="http://www.w3.org/1999/xlink">
    <title>Group 3 Copy</title>
    <g id="Final" stroke="none" stroke-width="1" fill="none" fill-rule="evenodd">
        <g id="Group-3-Copy" fill="#2C2C2C">
            <path d="M154.848186,100.2199 C152.584539,99.1841687 150.679488,101.69294 152.248353,103.695355 C155.565382,107.953362 159.666842,111.497865 162.871809,115.916986 C164.261375,117.781302 167.555991,117.9194 168.161124,115.203482 C169.102443,111.083572 169.819639,106.91763 170.514422,102.751688 C171.052318,99.48338 172.30741,95.6166493 170.671308,92.6015199 L167.533578,92.1872273 C165.292343,94.8571129 165.673353,98.6087624 165.180281,101.969136 L165.180281,101.992152 C163.207994,92.4634224 160.809872,83.0727905 157.403195,73.9583537 C153.16726,62.5192752 148.729614,50.3666927 140.840465,40.9990771 C133.802986,32.6671929 123.672602,27.7417145 112.89226,29.7211123 C101.686083,31.769559 92.9676774,39.9633456 86.737043,49.307945 C82.9941799,54.9008949 79.9460998,60.9771861 77.2790297,67.1455423 C75.8894638,70.3908342 74.7240214,73.7512074 73.7602902,77.1576131 C72.7965589,80.587035 72.8413836,83.8093107 72.482786,87.3077814 L74.8136708,87.9522365 C75.8446391,85.6045785 77.2566173,83.5561319 78.2875856,81.2084739 C79.385791,78.6306534 80.3719345,76.0068004 81.4925522,73.4289798 C83.6441382,68.4804851 85.7733118,63.5319904 88.3731448,58.7906419 C93.326275,49.7452539 100.005156,40.538752 109.933829,36.9942488 C133.444388,28.6393484 144.672978,59.2739833 151.307034,76.3980767 C154.960248,85.8347411 158.142802,95.4555355 161.302944,105.07633 C159.330657,103.142965 157.223896,101.32468 154.848186,100.2199 Z" id="Fill-43" transform="translate(121.982786, 73.284634) rotate(109.000000) translate(-121.982786, -73.284634) "></path>
            <text id="Start-Here" font-family="CaveatRoman-Bold, Caveat" font-size="30" font-weight="bold">
                <tspan x="0" y="29">Start Here</tspan>
            </text>
        </g>
    </g>
</svg>